<?xml version="1.0" encoding="utf-8"?>
<!-- Svg Vector Icons : http://www.onlinewebfonts.com/icon -->
<!DOCTYPE svg PUBLIC "-//W3C//DTD SVG 1.1//EN" "http://www.w3.org/Graphics/SVG/1.1/DTD/svg11.dtd">
<svg version="1.1" xmlns="http://www.w3.org/2000/svg" xmlns:xlink="http://www.w3.org/1999/xlink" x="0px" y="0px" viewBox="0 0 1000 1000" enable-background="new 0 0 1000 1000" xml:space="preserve">
<metadata> Svg Vector Icons : http://www.onlinewebfonts.com/icon </metadata>
<g><path d="M919.2,990c-39.2,0-70.9-31.7-70.9-70.8C848.3,496,504,151.7,80.8,151.7C41.7,151.7,10,120,10,80.8C10,41.7,41.7,10,80.8,10C582.2,10,990,417.9,990,919.2C990,958.4,958.4,990,919.2,990z"/><path d="M441.7,990c-39.1,0-70.8-31.7-70.8-70.8c0-159.9-130.1-290-290-290c-39.1,0-70.8-31.7-70.8-70.8c0-39.2,31.7-70.8,70.8-70.8c238,0,431.7,193.6,431.7,431.7C512.6,958.4,480.8,990,441.7,990z"/><path d="M678.2,990c-39.2,0-70.8-31.7-70.8-70.8c0-290.3-236.2-526.4-526.5-526.4C41.7,392.7,10,361,10,321.9c0-39.1,31.7-70.8,70.8-70.8C449.3,251,749,550.8,749,919.2C749,958.4,717.3,990,678.2,990z"/><path d="M10.9,868.2c0,67.3,54.5,121.8,121.8,121.8c67.3,0,121.8-54.5,121.8-121.8c0-67.3-54.5-121.8-121.8-121.8C65.5,746.4,10.9,800.9,10.9,868.2z"/></g>
</svg>